<mxfile host="65bd71144e">
    <diagram id="R2lEEEUBdFMjLlhIrx00" name="Page-1">
        <mxGraphModel dx="1088" dy="1155" grid="0" gridSize="10" guides="1" tooltips="1" connect="1" arrows="1" fold="1" page="0" pageScale="1" pageWidth="850" pageHeight="1100" math="0" shadow="0" extFonts="Permanent Marker^https://fonts.googleapis.com/css?family=Permanent+Marker">
            <root>
                <mxCell id="0"/>
                <mxCell id="1" parent="0"/>
                <mxCell id="C-vyLk0tnHw3VtMMgP7b-2" value="credits" style="shape=table;startSize=30;container=1;collapsible=1;childLayout=tableLayout;fixedRows=1;rowLines=0;fontStyle=1;align=center;resizeLast=1;fillColor=#1ba1e2;strokeColor=#006EAF;fontColor=#ffffff;" parent="1" vertex="1">
                    <mxGeometry x="820" y="52" width="240" height="154" as="geometry"/>
                </mxCell>
                <mxCell id="C-vyLk0tnHw3VtMMgP7b-3" value="" style="shape=partialRectangle;collapsible=0;dropTarget=0;pointerEvents=0;points=[[0,0.5],[1,0.5]];portConstraint=eastwest;top=0;left=0;right=0;bottom=1;" parent="C-vyLk0tnHw3VtMMgP7b-2" vertex="1">
                    <mxGeometry y="30" width="240" height="30" as="geometry"/>
                </mxCell>
                <mxCell id="C-vyLk0tnHw3VtMMgP7b-4" value="PK" style="shape=partialRectangle;overflow=hidden;connectable=0;top=0;left=0;bottom=0;right=0;fontStyle=1;" parent="C-vyLk0tnHw3VtMMgP7b-3" vertex="1">
                    <mxGeometry width="31.75" height="30" as="geometry">
                        <mxRectangle width="31.75" height="30" as="alternateBounds"/>
                    </mxGeometry>
                </mxCell>
                <mxCell id="C-vyLk0tnHw3VtMMgP7b-5" value="person_id" style="shape=partialRectangle;overflow=hidden;connectable=0;top=0;left=0;bottom=0;right=0;align=left;spacingLeft=6;fontStyle=5;" parent="C-vyLk0tnHw3VtMMgP7b-3" vertex="1">
                    <mxGeometry x="31.75" width="208.25" height="30" as="geometry">
                        <mxRectangle width="208.25" height="30" as="alternateBounds"/>
                    </mxGeometry>
                </mxCell>
                <mxCell id="27" style="shape=partialRectangle;collapsible=0;dropTarget=0;pointerEvents=0;points=[[0,0.5],[1,0.5]];portConstraint=eastwest;top=0;left=0;right=0;bottom=0;" vertex="1" parent="C-vyLk0tnHw3VtMMgP7b-2">
                    <mxGeometry y="60" width="240" height="28" as="geometry"/>
                </mxCell>
                <mxCell id="28" value="FK" style="shape=partialRectangle;overflow=hidden;connectable=0;top=0;left=0;bottom=0;right=0;" vertex="1" parent="27">
                    <mxGeometry width="31.75" height="28" as="geometry">
                        <mxRectangle width="31.75" height="28" as="alternateBounds"/>
                    </mxGeometry>
                </mxCell>
                <mxCell id="29" value="title_id" style="shape=partialRectangle;overflow=hidden;connectable=0;top=0;left=0;bottom=0;right=0;align=left;spacingLeft=6;verticalAlign=top;" vertex="1" parent="27">
                    <mxGeometry x="31.75" width="208.25" height="28" as="geometry">
                        <mxRectangle width="208.25" height="28" as="alternateBounds"/>
                    </mxGeometry>
                </mxCell>
                <mxCell id="C-vyLk0tnHw3VtMMgP7b-9" value="" style="shape=partialRectangle;collapsible=0;dropTarget=0;pointerEvents=0;points=[[0,0.5],[1,0.5]];portConstraint=eastwest;top=0;left=0;right=0;bottom=0;" parent="C-vyLk0tnHw3VtMMgP7b-2" vertex="1">
                    <mxGeometry y="88" width="240" height="66" as="geometry"/>
                </mxCell>
                <mxCell id="C-vyLk0tnHw3VtMMgP7b-10" value="" style="shape=partialRectangle;overflow=hidden;connectable=0;top=0;left=0;bottom=0;right=0;" parent="C-vyLk0tnHw3VtMMgP7b-9" vertex="1">
                    <mxGeometry width="31.75" height="66" as="geometry">
                        <mxRectangle width="31.75" height="66" as="alternateBounds"/>
                    </mxGeometry>
                </mxCell>
                <mxCell id="C-vyLk0tnHw3VtMMgP7b-11" value="first_name&#10;last_name&#10;character&#10;role&#10;" style="shape=partialRectangle;overflow=hidden;connectable=0;top=0;left=0;bottom=0;right=0;align=left;spacingLeft=6;verticalAlign=top;" parent="C-vyLk0tnHw3VtMMgP7b-9" vertex="1">
                    <mxGeometry x="31.75" width="208.25" height="66" as="geometry">
                        <mxRectangle width="208.25" height="66" as="alternateBounds"/>
                    </mxGeometry>
                </mxCell>
                <mxCell id="YFGoI8jdiH5YfzTE92s3-36" value="titles" style="shape=table;startSize=22;container=1;collapsible=1;childLayout=tableLayout;fixedRows=1;rowLines=0;fontStyle=1;align=center;resizeLast=1;fillColor=#1ba1e2;strokeColor=#006EAF;fontColor=#ffffff;" parent="1" vertex="1">
                    <mxGeometry x="586" y="-207" width="169.75" height="331" as="geometry"/>
                </mxCell>
                <mxCell id="YFGoI8jdiH5YfzTE92s3-37" value="" style="shape=partialRectangle;collapsible=0;dropTarget=0;pointerEvents=0;points=[[0,0.5],[1,0.5]];portConstraint=eastwest;top=0;left=0;right=0;bottom=1;" parent="YFGoI8jdiH5YfzTE92s3-36" vertex="1">
                    <mxGeometry y="22" width="169.75" height="32" as="geometry"/>
                </mxCell>
                <mxCell id="YFGoI8jdiH5YfzTE92s3-38" value="PK" style="shape=partialRectangle;overflow=hidden;connectable=0;top=0;left=0;bottom=0;right=0;fontStyle=0;" parent="YFGoI8jdiH5YfzTE92s3-37" vertex="1">
                    <mxGeometry width="30" height="32" as="geometry">
                        <mxRectangle width="30" height="32" as="alternateBounds"/>
                    </mxGeometry>
                </mxCell>
                <mxCell id="YFGoI8jdiH5YfzTE92s3-39" value="title_id" style="shape=partialRectangle;overflow=hidden;connectable=0;top=0;left=0;bottom=0;right=0;align=left;spacingLeft=6;fontStyle=4;" parent="YFGoI8jdiH5YfzTE92s3-37" vertex="1">
                    <mxGeometry x="30" width="139.75" height="32" as="geometry">
                        <mxRectangle width="139.75" height="32" as="alternateBounds"/>
                    </mxGeometry>
                </mxCell>
                <mxCell id="YFGoI8jdiH5YfzTE92s3-40" value="" style="shape=partialRectangle;collapsible=0;dropTarget=0;pointerEvents=0;points=[[0,0.5],[1,0.5]];portConstraint=eastwest;top=0;left=0;right=0;bottom=0;" parent="YFGoI8jdiH5YfzTE92s3-36" vertex="1">
                    <mxGeometry y="54" width="169.75" height="34" as="geometry"/>
                </mxCell>
                <mxCell id="YFGoI8jdiH5YfzTE92s3-41" value="FK" style="shape=partialRectangle;overflow=hidden;connectable=0;top=0;left=0;bottom=0;right=0;" parent="YFGoI8jdiH5YfzTE92s3-40" vertex="1">
                    <mxGeometry width="30" height="34" as="geometry">
                        <mxRectangle width="30" height="34" as="alternateBounds"/>
                    </mxGeometry>
                </mxCell>
                <mxCell id="YFGoI8jdiH5YfzTE92s3-42" value="title - str" style="shape=partialRectangle;overflow=hidden;connectable=0;top=0;left=0;bottom=0;right=0;align=left;spacingLeft=6;" parent="YFGoI8jdiH5YfzTE92s3-40" vertex="1">
                    <mxGeometry x="30" width="139.75" height="34" as="geometry">
                        <mxRectangle width="139.75" height="34" as="alternateBounds"/>
                    </mxGeometry>
                </mxCell>
                <mxCell id="3" style="shape=partialRectangle;collapsible=0;dropTarget=0;pointerEvents=0;points=[[0,0.5],[1,0.5]];portConstraint=eastwest;top=0;left=0;right=0;bottom=0;" vertex="1" parent="YFGoI8jdiH5YfzTE92s3-36">
                    <mxGeometry y="88" width="169.75" height="30" as="geometry"/>
                </mxCell>
                <mxCell id="4" style="shape=partialRectangle;overflow=hidden;connectable=0;top=0;left=0;bottom=0;right=0;" vertex="1" parent="3">
                    <mxGeometry width="30" height="30" as="geometry">
                        <mxRectangle width="30" height="30" as="alternateBounds"/>
                    </mxGeometry>
                </mxCell>
                <mxCell id="5" value="type -str" style="shape=partialRectangle;overflow=hidden;connectable=0;top=0;left=0;bottom=0;right=0;align=left;spacingLeft=6;" vertex="1" parent="3">
                    <mxGeometry x="30" width="139.75" height="30" as="geometry">
                        <mxRectangle width="139.75" height="30" as="alternateBounds"/>
                    </mxGeometry>
                </mxCell>
                <mxCell id="6" style="shape=partialRectangle;collapsible=0;dropTarget=0;pointerEvents=0;points=[[0,0.5],[1,0.5]];portConstraint=eastwest;top=0;left=0;right=0;bottom=0;" vertex="1" parent="YFGoI8jdiH5YfzTE92s3-36">
                    <mxGeometry y="118" width="169.75" height="30" as="geometry"/>
                </mxCell>
                <mxCell id="7" style="shape=partialRectangle;overflow=hidden;connectable=0;top=0;left=0;bottom=0;right=0;" vertex="1" parent="6">
                    <mxGeometry width="30" height="30" as="geometry">
                        <mxRectangle width="30" height="30" as="alternateBounds"/>
                    </mxGeometry>
                </mxCell>
                <mxCell id="8" value="release_year - int" style="shape=partialRectangle;overflow=hidden;connectable=0;top=0;left=0;bottom=0;right=0;align=left;spacingLeft=6;" vertex="1" parent="6">
                    <mxGeometry x="30" width="139.75" height="30" as="geometry">
                        <mxRectangle width="139.75" height="30" as="alternateBounds"/>
                    </mxGeometry>
                </mxCell>
                <mxCell id="9" style="shape=partialRectangle;collapsible=0;dropTarget=0;pointerEvents=0;points=[[0,0.5],[1,0.5]];portConstraint=eastwest;top=0;left=0;right=0;bottom=0;" vertex="1" parent="YFGoI8jdiH5YfzTE92s3-36">
                    <mxGeometry y="148" width="169.75" height="25" as="geometry"/>
                </mxCell>
                <mxCell id="10" style="shape=partialRectangle;overflow=hidden;connectable=0;top=0;left=0;bottom=0;right=0;" vertex="1" parent="9">
                    <mxGeometry width="30" height="25" as="geometry">
                        <mxRectangle width="30" height="25" as="alternateBounds"/>
                    </mxGeometry>
                </mxCell>
                <mxCell id="11" value="age_certification - str" style="shape=partialRectangle;overflow=hidden;connectable=0;top=0;left=0;bottom=0;right=0;align=left;spacingLeft=6;" vertex="1" parent="9">
                    <mxGeometry x="30" width="139.75" height="25" as="geometry">
                        <mxRectangle width="139.75" height="25" as="alternateBounds"/>
                    </mxGeometry>
                </mxCell>
                <mxCell id="12" style="shape=partialRectangle;collapsible=0;dropTarget=0;pointerEvents=0;points=[[0,0.5],[1,0.5]];portConstraint=eastwest;top=0;left=0;right=0;bottom=0;" vertex="1" parent="YFGoI8jdiH5YfzTE92s3-36">
                    <mxGeometry y="173" width="169.75" height="30" as="geometry"/>
                </mxCell>
                <mxCell id="13" style="shape=partialRectangle;overflow=hidden;connectable=0;top=0;left=0;bottom=0;right=0;" vertex="1" parent="12">
                    <mxGeometry width="30" height="30" as="geometry">
                        <mxRectangle width="30" height="30" as="alternateBounds"/>
                    </mxGeometry>
                </mxCell>
                <mxCell id="14" value="runtime - int" style="shape=partialRectangle;overflow=hidden;connectable=0;top=0;left=0;bottom=0;right=0;align=left;spacingLeft=6;" vertex="1" parent="12">
                    <mxGeometry x="30" width="139.75" height="30" as="geometry">
                        <mxRectangle width="139.75" height="30" as="alternateBounds"/>
                    </mxGeometry>
                </mxCell>
                <mxCell id="15" style="shape=partialRectangle;collapsible=0;dropTarget=0;pointerEvents=0;points=[[0,0.5],[1,0.5]];portConstraint=eastwest;top=0;left=0;right=0;bottom=0;" vertex="1" parent="YFGoI8jdiH5YfzTE92s3-36">
                    <mxGeometry y="203" width="169.75" height="30" as="geometry"/>
                </mxCell>
                <mxCell id="16" style="shape=partialRectangle;overflow=hidden;connectable=0;top=0;left=0;bottom=0;right=0;" vertex="1" parent="15">
                    <mxGeometry width="30" height="30" as="geometry">
                        <mxRectangle width="30" height="30" as="alternateBounds"/>
                    </mxGeometry>
                </mxCell>
                <mxCell id="17" value="genres - str" style="shape=partialRectangle;overflow=hidden;connectable=0;top=0;left=0;bottom=0;right=0;align=left;spacingLeft=6;" vertex="1" parent="15">
                    <mxGeometry x="30" width="139.75" height="30" as="geometry">
                        <mxRectangle width="139.75" height="30" as="alternateBounds"/>
                    </mxGeometry>
                </mxCell>
                <mxCell id="18" style="shape=partialRectangle;collapsible=0;dropTarget=0;pointerEvents=0;points=[[0,0.5],[1,0.5]];portConstraint=eastwest;top=0;left=0;right=0;bottom=0;" vertex="1" parent="YFGoI8jdiH5YfzTE92s3-36">
                    <mxGeometry y="233" width="169.75" height="30" as="geometry"/>
                </mxCell>
                <mxCell id="19" style="shape=partialRectangle;overflow=hidden;connectable=0;top=0;left=0;bottom=0;right=0;" vertex="1" parent="18">
                    <mxGeometry width="30" height="30" as="geometry">
                        <mxRectangle width="30" height="30" as="alternateBounds"/>
                    </mxGeometry>
                </mxCell>
                <mxCell id="20" value="num_seasons - int" style="shape=partialRectangle;overflow=hidden;connectable=0;top=0;left=0;bottom=0;right=0;align=left;spacingLeft=6;" vertex="1" parent="18">
                    <mxGeometry x="30" width="139.75" height="30" as="geometry">
                        <mxRectangle width="139.75" height="30" as="alternateBounds"/>
                    </mxGeometry>
                </mxCell>
                <mxCell id="21" style="shape=partialRectangle;collapsible=0;dropTarget=0;pointerEvents=0;points=[[0,0.5],[1,0.5]];portConstraint=eastwest;top=0;left=0;right=0;bottom=0;" vertex="1" parent="YFGoI8jdiH5YfzTE92s3-36">
                    <mxGeometry y="263" width="169.75" height="30" as="geometry"/>
                </mxCell>
                <mxCell id="22" style="shape=partialRectangle;overflow=hidden;connectable=0;top=0;left=0;bottom=0;right=0;" vertex="1" parent="21">
                    <mxGeometry width="30" height="30" as="geometry">
                        <mxRectangle width="30" height="30" as="alternateBounds"/>
                    </mxGeometry>
                </mxCell>
                <mxCell id="23" style="shape=partialRectangle;overflow=hidden;connectable=0;top=0;left=0;bottom=0;right=0;align=left;spacingLeft=6;" vertex="1" parent="21">
                    <mxGeometry x="30" width="139.75" height="30" as="geometry">
                        <mxRectangle width="139.75" height="30" as="alternateBounds"/>
                    </mxGeometry>
                </mxCell>
                <mxCell id="24" style="shape=partialRectangle;collapsible=0;dropTarget=0;pointerEvents=0;points=[[0,0.5],[1,0.5]];portConstraint=eastwest;top=0;left=0;right=0;bottom=0;" vertex="1" parent="YFGoI8jdiH5YfzTE92s3-36">
                    <mxGeometry y="293" width="169.75" height="30" as="geometry"/>
                </mxCell>
                <mxCell id="25" style="shape=partialRectangle;overflow=hidden;connectable=0;top=0;left=0;bottom=0;right=0;" vertex="1" parent="24">
                    <mxGeometry width="30" height="30" as="geometry">
                        <mxRectangle width="30" height="30" as="alternateBounds"/>
                    </mxGeometry>
                </mxCell>
                <mxCell id="26" style="shape=partialRectangle;overflow=hidden;connectable=0;top=0;left=0;bottom=0;right=0;align=left;spacingLeft=6;" vertex="1" parent="24">
                    <mxGeometry x="30" width="139.75" height="30" as="geometry">
                        <mxRectangle width="139.75" height="30" as="alternateBounds"/>
                    </mxGeometry>
                </mxCell>
                <mxCell id="YFGoI8jdiH5YfzTE92s3-52" value="genre" style="shape=table;startSize=30;container=1;collapsible=1;childLayout=tableLayout;fixedRows=1;rowLines=0;fontStyle=1;align=center;resizeLast=1;fillColor=#1ba1e2;strokeColor=#006EAF;fontColor=#ffffff;" parent="1" vertex="1">
                    <mxGeometry x="842" y="-224" width="159.75" height="100" as="geometry"/>
                </mxCell>
                <mxCell id="YFGoI8jdiH5YfzTE92s3-53" value="" style="shape=partialRectangle;collapsible=0;dropTarget=0;pointerEvents=0;points=[[0,0.5],[1,0.5]];portConstraint=eastwest;top=0;left=0;right=0;bottom=1;" parent="YFGoI8jdiH5YfzTE92s3-52" vertex="1">
                    <mxGeometry y="30" width="159.75" height="30" as="geometry"/>
                </mxCell>
                <mxCell id="YFGoI8jdiH5YfzTE92s3-54" value="FK" style="shape=partialRectangle;overflow=hidden;connectable=0;top=0;left=0;bottom=0;right=0;fontStyle=0;" parent="YFGoI8jdiH5YfzTE92s3-53" vertex="1">
                    <mxGeometry width="30" height="30" as="geometry">
                        <mxRectangle width="30" height="30" as="alternateBounds"/>
                    </mxGeometry>
                </mxCell>
                <mxCell id="YFGoI8jdiH5YfzTE92s3-55" value="title_id" style="shape=partialRectangle;overflow=hidden;connectable=0;top=0;left=0;bottom=0;right=0;align=left;spacingLeft=6;fontStyle=4;" parent="YFGoI8jdiH5YfzTE92s3-53" vertex="1">
                    <mxGeometry x="30" width="129.75" height="30" as="geometry">
                        <mxRectangle width="129.75" height="30" as="alternateBounds"/>
                    </mxGeometry>
                </mxCell>
                <mxCell id="YFGoI8jdiH5YfzTE92s3-56" value="" style="shape=partialRectangle;collapsible=0;dropTarget=0;pointerEvents=0;points=[[0,0.5],[1,0.5]];portConstraint=eastwest;top=0;left=0;right=0;bottom=0;" parent="YFGoI8jdiH5YfzTE92s3-52" vertex="1">
                    <mxGeometry y="60" width="159.75" height="30" as="geometry"/>
                </mxCell>
                <mxCell id="YFGoI8jdiH5YfzTE92s3-57" value="" style="shape=partialRectangle;overflow=hidden;connectable=0;top=0;left=0;bottom=0;right=0;" parent="YFGoI8jdiH5YfzTE92s3-56" vertex="1">
                    <mxGeometry width="30" height="30" as="geometry">
                        <mxRectangle width="30" height="30" as="alternateBounds"/>
                    </mxGeometry>
                </mxCell>
                <mxCell id="YFGoI8jdiH5YfzTE92s3-58" value="genre - str" style="shape=partialRectangle;overflow=hidden;connectable=0;top=0;left=0;bottom=0;right=0;align=left;spacingLeft=6;" parent="YFGoI8jdiH5YfzTE92s3-56" vertex="1">
                    <mxGeometry x="30" width="129.75" height="30" as="geometry">
                        <mxRectangle width="129.75" height="30" as="alternateBounds"/>
                    </mxGeometry>
                </mxCell>
                <mxCell id="AO1zrGgT2cooBu88k1n--1" value="prod_country" style="shape=table;startSize=30;container=1;collapsible=1;childLayout=tableLayout;fixedRows=1;rowLines=0;fontStyle=1;align=center;resizeLast=1;fillColor=#1ba1e2;strokeColor=#006EAF;fontColor=#ffffff;" parent="1" vertex="1">
                    <mxGeometry x="826" y="-103" width="159.75" height="110" as="geometry"/>
                </mxCell>
                <mxCell id="AO1zrGgT2cooBu88k1n--2" value="" style="shape=partialRectangle;collapsible=0;dropTarget=0;pointerEvents=0;points=[[0,0.5],[1,0.5]];portConstraint=eastwest;top=0;left=0;right=0;bottom=1;" parent="AO1zrGgT2cooBu88k1n--1" vertex="1">
                    <mxGeometry y="30" width="159.75" height="30" as="geometry"/>
                </mxCell>
                <mxCell id="AO1zrGgT2cooBu88k1n--3" value="FK" style="shape=partialRectangle;overflow=hidden;connectable=0;top=0;left=0;bottom=0;right=0;fontStyle=0;" parent="AO1zrGgT2cooBu88k1n--2" vertex="1">
                    <mxGeometry width="30" height="30" as="geometry">
                        <mxRectangle width="30" height="30" as="alternateBounds"/>
                    </mxGeometry>
                </mxCell>
                <mxCell id="AO1zrGgT2cooBu88k1n--4" value="title_id" style="shape=partialRectangle;overflow=hidden;connectable=0;top=0;left=0;bottom=0;right=0;align=left;spacingLeft=6;fontStyle=4;" parent="AO1zrGgT2cooBu88k1n--2" vertex="1">
                    <mxGeometry x="30" width="129.75" height="30" as="geometry">
                        <mxRectangle width="129.75" height="30" as="alternateBounds"/>
                    </mxGeometry>
                </mxCell>
                <mxCell id="AO1zrGgT2cooBu88k1n--5" value="" style="shape=partialRectangle;collapsible=0;dropTarget=0;pointerEvents=0;points=[[0,0.5],[1,0.5]];portConstraint=eastwest;top=0;left=0;right=0;bottom=0;" parent="AO1zrGgT2cooBu88k1n--1" vertex="1">
                    <mxGeometry y="60" width="159.75" height="30" as="geometry"/>
                </mxCell>
                <mxCell id="AO1zrGgT2cooBu88k1n--6" value="" style="shape=partialRectangle;overflow=hidden;connectable=0;top=0;left=0;bottom=0;right=0;" parent="AO1zrGgT2cooBu88k1n--5" vertex="1">
                    <mxGeometry width="30" height="30" as="geometry">
                        <mxRectangle width="30" height="30" as="alternateBounds"/>
                    </mxGeometry>
                </mxCell>
                <mxCell id="AO1zrGgT2cooBu88k1n--7" value="country" style="shape=partialRectangle;overflow=hidden;connectable=0;top=0;left=0;bottom=0;right=0;align=left;spacingLeft=6;" parent="AO1zrGgT2cooBu88k1n--5" vertex="1">
                    <mxGeometry x="30" width="129.75" height="30" as="geometry">
                        <mxRectangle width="129.75" height="30" as="alternateBounds"/>
                    </mxGeometry>
                </mxCell>
                <mxCell id="AO1zrGgT2cooBu88k1n--8" value="" style="shape=partialRectangle;collapsible=0;dropTarget=0;pointerEvents=0;points=[[0,0.5],[1,0.5]];portConstraint=eastwest;top=0;left=0;right=0;bottom=0;" parent="AO1zrGgT2cooBu88k1n--1" vertex="1">
                    <mxGeometry y="90" width="159.75" height="20" as="geometry"/>
                </mxCell>
                <mxCell id="AO1zrGgT2cooBu88k1n--9" value="" style="shape=partialRectangle;overflow=hidden;connectable=0;top=0;left=0;bottom=0;right=0;" parent="AO1zrGgT2cooBu88k1n--8" vertex="1">
                    <mxGeometry width="30" height="20" as="geometry">
                        <mxRectangle width="30" height="20" as="alternateBounds"/>
                    </mxGeometry>
                </mxCell>
                <mxCell id="AO1zrGgT2cooBu88k1n--10" value="" style="shape=partialRectangle;overflow=hidden;connectable=0;top=0;left=0;bottom=0;right=0;align=left;spacingLeft=6;" parent="AO1zrGgT2cooBu88k1n--8" vertex="1">
                    <mxGeometry x="30" width="129.75" height="20" as="geometry">
                        <mxRectangle width="129.75" height="20" as="alternateBounds"/>
                    </mxGeometry>
                </mxCell>
                <mxCell id="YFGoI8jdiH5YfzTE92s3-62" value="" style="edgeStyle=entityRelationEdgeStyle;endArrow=ERzeroToMany;startArrow=ERoneToMany;endFill=1;startFill=0;entryX=1;entryY=0.5;entryDx=0;entryDy=0;exitX=0;exitY=0.5;exitDx=0;exitDy=0;" parent="1" source="YFGoI8jdiH5YfzTE92s3-53" target="YFGoI8jdiH5YfzTE92s3-37" edge="1">
                    <mxGeometry width="100" height="100" relative="1" as="geometry">
                        <mxPoint x="708" y="49" as="sourcePoint"/>
                        <mxPoint x="699" y="135" as="targetPoint"/>
                    </mxGeometry>
                </mxCell>
                <mxCell id="C-vyLk0tnHw3VtMMgP7b-12" value="" style="edgeStyle=entityRelationEdgeStyle;endArrow=ERzeroToMany;startArrow=ERoneToMany;endFill=1;startFill=0;exitX=0;exitY=0.5;exitDx=0;exitDy=0;entryX=1;entryY=0.5;entryDx=0;entryDy=0;" parent="1" source="AO1zrGgT2cooBu88k1n--2" target="YFGoI8jdiH5YfzTE92s3-37" edge="1">
                    <mxGeometry width="100" height="100" relative="1" as="geometry">
                        <mxPoint x="772" y="260.13" as="sourcePoint"/>
                        <mxPoint x="779" y="-153" as="targetPoint"/>
                    </mxGeometry>
                </mxCell>
                <mxCell id="30" value="" style="edgeStyle=entityRelationEdgeStyle;endArrow=ERzeroToMany;startArrow=ERoneToMany;endFill=1;startFill=0;exitX=0;exitY=0.5;exitDx=0;exitDy=0;" edge="1" parent="1" source="27" target="YFGoI8jdiH5YfzTE92s3-37">
                    <mxGeometry width="100" height="100" relative="1" as="geometry">
                        <mxPoint x="951" y="116" as="sourcePoint"/>
                        <mxPoint x="756.75" y="-273" as="targetPoint"/>
                    </mxGeometry>
                </mxCell>
                <mxCell id="32" value="best_movies_yearly" style="shape=table;startSize=22;container=1;collapsible=1;childLayout=tableLayout;fixedRows=1;rowLines=0;fontStyle=1;align=center;resizeLast=1;fillColor=#1ba1e2;strokeColor=#006EAF;fontColor=#ffffff;" vertex="1" parent="1">
                    <mxGeometry x="263" y="-102" width="169.75" height="194" as="geometry"/>
                </mxCell>
                <mxCell id="33" value="" style="shape=partialRectangle;collapsible=0;dropTarget=0;pointerEvents=0;points=[[0,0.5],[1,0.5]];portConstraint=eastwest;top=0;left=0;right=0;bottom=1;" vertex="1" parent="32">
                    <mxGeometry y="22" width="169.75" height="32" as="geometry"/>
                </mxCell>
                <mxCell id="34" value="PK" style="shape=partialRectangle;overflow=hidden;connectable=0;top=0;left=0;bottom=0;right=0;fontStyle=0;" vertex="1" parent="33">
                    <mxGeometry width="32.75" height="32" as="geometry">
                        <mxRectangle width="32.75" height="32" as="alternateBounds"/>
                    </mxGeometry>
                </mxCell>
                <mxCell id="35" value="title" style="shape=partialRectangle;overflow=hidden;connectable=0;top=0;left=0;bottom=0;right=0;align=left;spacingLeft=6;fontStyle=4;" vertex="1" parent="33">
                    <mxGeometry x="32.75" width="137" height="32" as="geometry">
                        <mxRectangle width="137" height="32" as="alternateBounds"/>
                    </mxGeometry>
                </mxCell>
                <mxCell id="42" style="shape=partialRectangle;collapsible=0;dropTarget=0;pointerEvents=0;points=[[0,0.5],[1,0.5]];portConstraint=eastwest;top=0;left=0;right=0;bottom=0;" vertex="1" parent="32">
                    <mxGeometry y="54" width="169.75" height="30" as="geometry"/>
                </mxCell>
                <mxCell id="43" style="shape=partialRectangle;overflow=hidden;connectable=0;top=0;left=0;bottom=0;right=0;" vertex="1" parent="42">
                    <mxGeometry width="32.75" height="30" as="geometry">
                        <mxRectangle width="32.75" height="30" as="alternateBounds"/>
                    </mxGeometry>
                </mxCell>
                <mxCell id="44" value="release_year - int" style="shape=partialRectangle;overflow=hidden;connectable=0;top=0;left=0;bottom=0;right=0;align=left;spacingLeft=6;" vertex="1" parent="42">
                    <mxGeometry x="32.75" width="137" height="30" as="geometry">
                        <mxRectangle width="137" height="30" as="alternateBounds"/>
                    </mxGeometry>
                </mxCell>
                <mxCell id="48" style="shape=partialRectangle;collapsible=0;dropTarget=0;pointerEvents=0;points=[[0,0.5],[1,0.5]];portConstraint=eastwest;top=0;left=0;right=0;bottom=0;" vertex="1" parent="32">
                    <mxGeometry y="84" width="169.75" height="30" as="geometry"/>
                </mxCell>
                <mxCell id="49" style="shape=partialRectangle;overflow=hidden;connectable=0;top=0;left=0;bottom=0;right=0;" vertex="1" parent="48">
                    <mxGeometry width="32.75" height="30" as="geometry">
                        <mxRectangle width="32.75" height="30" as="alternateBounds"/>
                    </mxGeometry>
                </mxCell>
                <mxCell id="50" value="score - float" style="shape=partialRectangle;overflow=hidden;connectable=0;top=0;left=0;bottom=0;right=0;align=left;spacingLeft=6;" vertex="1" parent="48">
                    <mxGeometry x="32.75" width="137" height="30" as="geometry">
                        <mxRectangle width="137" height="30" as="alternateBounds"/>
                    </mxGeometry>
                </mxCell>
                <mxCell id="51" style="shape=partialRectangle;collapsible=0;dropTarget=0;pointerEvents=0;points=[[0,0.5],[1,0.5]];portConstraint=eastwest;top=0;left=0;right=0;bottom=0;" vertex="1" parent="32">
                    <mxGeometry y="114" width="169.75" height="30" as="geometry"/>
                </mxCell>
                <mxCell id="52" style="shape=partialRectangle;overflow=hidden;connectable=0;top=0;left=0;bottom=0;right=0;" vertex="1" parent="51">
                    <mxGeometry width="32.75" height="30" as="geometry">
                        <mxRectangle width="32.75" height="30" as="alternateBounds"/>
                    </mxGeometry>
                </mxCell>
                <mxCell id="53" value="main_genre - str" style="shape=partialRectangle;overflow=hidden;connectable=0;top=0;left=0;bottom=0;right=0;align=left;spacingLeft=6;" vertex="1" parent="51">
                    <mxGeometry x="32.75" width="137" height="30" as="geometry">
                        <mxRectangle width="137" height="30" as="alternateBounds"/>
                    </mxGeometry>
                </mxCell>
                <mxCell id="54" style="shape=partialRectangle;collapsible=0;dropTarget=0;pointerEvents=0;points=[[0,0.5],[1,0.5]];portConstraint=eastwest;top=0;left=0;right=0;bottom=0;" vertex="1" parent="32">
                    <mxGeometry y="144" width="169.75" height="30" as="geometry"/>
                </mxCell>
                <mxCell id="55" style="shape=partialRectangle;overflow=hidden;connectable=0;top=0;left=0;bottom=0;right=0;" vertex="1" parent="54">
                    <mxGeometry width="32.75" height="30" as="geometry">
                        <mxRectangle width="32.75" height="30" as="alternateBounds"/>
                    </mxGeometry>
                </mxCell>
                <mxCell id="56" value="main_prod_country - str" style="shape=partialRectangle;overflow=hidden;connectable=0;top=0;left=0;bottom=0;right=0;align=left;spacingLeft=6;" vertex="1" parent="54">
                    <mxGeometry x="32.75" width="137" height="30" as="geometry">
                        <mxRectangle width="137" height="30" as="alternateBounds"/>
                    </mxGeometry>
                </mxCell>
                <mxCell id="60" style="shape=partialRectangle;collapsible=0;dropTarget=0;pointerEvents=0;points=[[0,0.5],[1,0.5]];portConstraint=eastwest;top=0;left=0;right=0;bottom=0;" vertex="1" parent="32">
                    <mxGeometry y="174" width="169.75" height="20" as="geometry"/>
                </mxCell>
                <mxCell id="61" style="shape=partialRectangle;overflow=hidden;connectable=0;top=0;left=0;bottom=0;right=0;" vertex="1" parent="60">
                    <mxGeometry width="32.75" height="20" as="geometry">
                        <mxRectangle width="32.75" height="20" as="alternateBounds"/>
                    </mxGeometry>
                </mxCell>
                <mxCell id="62" style="shape=partialRectangle;overflow=hidden;connectable=0;top=0;left=0;bottom=0;right=0;align=left;spacingLeft=6;" vertex="1" parent="60">
                    <mxGeometry x="32.75" width="137" height="20" as="geometry">
                        <mxRectangle width="137" height="20" as="alternateBounds"/>
                    </mxGeometry>
                </mxCell>
                <mxCell id="63" value="" style="edgeStyle=entityRelationEdgeStyle;endArrow=ERzeroToMany;startArrow=ERoneToMany;endFill=1;startFill=0;exitX=0;exitY=0.5;exitDx=0;exitDy=0;" edge="1" parent="1" source="YFGoI8jdiH5YfzTE92s3-40" target="33">
                    <mxGeometry width="100" height="100" relative="1" as="geometry">
                        <mxPoint x="852" y="-169" as="sourcePoint"/>
                        <mxPoint x="766.75" y="-62" as="targetPoint"/>
                    </mxGeometry>
                </mxCell>
                <mxCell id="64" value="best_movies" style="shape=table;startSize=22;container=1;collapsible=1;childLayout=tableLayout;fixedRows=1;rowLines=0;fontStyle=1;align=center;resizeLast=1;fillColor=#1ba1e2;strokeColor=#006EAF;fontColor=#ffffff;" vertex="1" parent="1">
                    <mxGeometry x="246" y="-341" width="186.75" height="228.75" as="geometry"/>
                </mxCell>
                <mxCell id="65" value="" style="shape=partialRectangle;collapsible=0;dropTarget=0;pointerEvents=0;points=[[0,0.5],[1,0.5]];portConstraint=eastwest;top=0;left=0;right=0;bottom=1;" vertex="1" parent="64">
                    <mxGeometry y="22" width="186.75" height="32" as="geometry"/>
                </mxCell>
                <mxCell id="66" value="PK" style="shape=partialRectangle;overflow=hidden;connectable=0;top=0;left=0;bottom=0;right=0;fontStyle=0;" vertex="1" parent="65">
                    <mxGeometry width="32.75" height="32" as="geometry">
                        <mxRectangle width="32.75" height="32" as="alternateBounds"/>
                    </mxGeometry>
                </mxCell>
                <mxCell id="67" value="title" style="shape=partialRectangle;overflow=hidden;connectable=0;top=0;left=0;bottom=0;right=0;align=left;spacingLeft=6;fontStyle=4;" vertex="1" parent="65">
                    <mxGeometry x="32.75" width="154" height="32" as="geometry">
                        <mxRectangle width="154" height="32" as="alternateBounds"/>
                    </mxGeometry>
                </mxCell>
                <mxCell id="68" style="shape=partialRectangle;collapsible=0;dropTarget=0;pointerEvents=0;points=[[0,0.5],[1,0.5]];portConstraint=eastwest;top=0;left=0;right=0;bottom=0;" vertex="1" parent="64">
                    <mxGeometry y="54" width="186.75" height="30" as="geometry"/>
                </mxCell>
                <mxCell id="69" style="shape=partialRectangle;overflow=hidden;connectable=0;top=0;left=0;bottom=0;right=0;" vertex="1" parent="68">
                    <mxGeometry width="32.75" height="30" as="geometry">
                        <mxRectangle width="32.75" height="30" as="alternateBounds"/>
                    </mxGeometry>
                </mxCell>
                <mxCell id="70" value="release_year - int" style="shape=partialRectangle;overflow=hidden;connectable=0;top=0;left=0;bottom=0;right=0;align=left;spacingLeft=6;" vertex="1" parent="68">
                    <mxGeometry x="32.75" width="154" height="30" as="geometry">
                        <mxRectangle width="154" height="30" as="alternateBounds"/>
                    </mxGeometry>
                </mxCell>
                <mxCell id="71" style="shape=partialRectangle;collapsible=0;dropTarget=0;pointerEvents=0;points=[[0,0.5],[1,0.5]];portConstraint=eastwest;top=0;left=0;right=0;bottom=0;" vertex="1" parent="64">
                    <mxGeometry y="84" width="186.75" height="30" as="geometry"/>
                </mxCell>
                <mxCell id="72" style="shape=partialRectangle;overflow=hidden;connectable=0;top=0;left=0;bottom=0;right=0;" vertex="1" parent="71">
                    <mxGeometry width="32.75" height="30" as="geometry">
                        <mxRectangle width="32.75" height="30" as="alternateBounds"/>
                    </mxGeometry>
                </mxCell>
                <mxCell id="73" value="score - float" style="shape=partialRectangle;overflow=hidden;connectable=0;top=0;left=0;bottom=0;right=0;align=left;spacingLeft=6;" vertex="1" parent="71">
                    <mxGeometry x="32.75" width="154" height="30" as="geometry">
                        <mxRectangle width="154" height="30" as="alternateBounds"/>
                    </mxGeometry>
                </mxCell>
                <mxCell id="74" style="shape=partialRectangle;collapsible=0;dropTarget=0;pointerEvents=0;points=[[0,0.5],[1,0.5]];portConstraint=eastwest;top=0;left=0;right=0;bottom=0;" vertex="1" parent="64">
                    <mxGeometry y="114" width="186.75" height="30" as="geometry"/>
                </mxCell>
                <mxCell id="75" style="shape=partialRectangle;overflow=hidden;connectable=0;top=0;left=0;bottom=0;right=0;" vertex="1" parent="74">
                    <mxGeometry width="32.75" height="30" as="geometry">
                        <mxRectangle width="32.75" height="30" as="alternateBounds"/>
                    </mxGeometry>
                </mxCell>
                <mxCell id="76" value="main_genre - str" style="shape=partialRectangle;overflow=hidden;connectable=0;top=0;left=0;bottom=0;right=0;align=left;spacingLeft=6;" vertex="1" parent="74">
                    <mxGeometry x="32.75" width="154" height="30" as="geometry">
                        <mxRectangle width="154" height="30" as="alternateBounds"/>
                    </mxGeometry>
                </mxCell>
                <mxCell id="77" style="shape=partialRectangle;collapsible=0;dropTarget=0;pointerEvents=0;points=[[0,0.5],[1,0.5]];portConstraint=eastwest;top=0;left=0;right=0;bottom=0;" vertex="1" parent="64">
                    <mxGeometry y="144" width="186.75" height="27" as="geometry"/>
                </mxCell>
                <mxCell id="78" style="shape=partialRectangle;overflow=hidden;connectable=0;top=0;left=0;bottom=0;right=0;" vertex="1" parent="77">
                    <mxGeometry width="32.75" height="27" as="geometry">
                        <mxRectangle width="32.75" height="27" as="alternateBounds"/>
                    </mxGeometry>
                </mxCell>
                <mxCell id="79" value="num_votes - int" style="shape=partialRectangle;overflow=hidden;connectable=0;top=0;left=0;bottom=0;right=0;align=left;spacingLeft=6;" vertex="1" parent="77">
                    <mxGeometry x="32.75" width="154" height="27" as="geometry">
                        <mxRectangle width="154" height="27" as="alternateBounds"/>
                    </mxGeometry>
                </mxCell>
                <mxCell id="80" style="shape=partialRectangle;collapsible=0;dropTarget=0;pointerEvents=0;points=[[0,0.5],[1,0.5]];portConstraint=eastwest;top=0;left=0;right=0;bottom=0;" vertex="1" parent="64">
                    <mxGeometry y="171" width="186.75" height="30" as="geometry"/>
                </mxCell>
                <mxCell id="81" style="shape=partialRectangle;overflow=hidden;connectable=0;top=0;left=0;bottom=0;right=0;" vertex="1" parent="80">
                    <mxGeometry width="32.75" height="30" as="geometry">
                        <mxRectangle width="32.75" height="30" as="alternateBounds"/>
                    </mxGeometry>
                </mxCell>
                <mxCell id="82" value="runtime - int" style="shape=partialRectangle;overflow=hidden;connectable=0;top=0;left=0;bottom=0;right=0;align=left;spacingLeft=6;" vertex="1" parent="80">
                    <mxGeometry x="32.75" width="154" height="30" as="geometry">
                        <mxRectangle width="154" height="30" as="alternateBounds"/>
                    </mxGeometry>
                </mxCell>
                <mxCell id="83" style="shape=partialRectangle;collapsible=0;dropTarget=0;pointerEvents=0;points=[[0,0.5],[1,0.5]];portConstraint=eastwest;top=0;left=0;right=0;bottom=0;" vertex="1" parent="64">
                    <mxGeometry y="201" width="186.75" height="20" as="geometry"/>
                </mxCell>
                <mxCell id="84" style="shape=partialRectangle;overflow=hidden;connectable=0;top=0;left=0;bottom=0;right=0;" vertex="1" parent="83">
                    <mxGeometry width="32.75" height="20" as="geometry">
                        <mxRectangle width="32.75" height="20" as="alternateBounds"/>
                    </mxGeometry>
                </mxCell>
                <mxCell id="85" value="main_prod_country - str" style="shape=partialRectangle;overflow=hidden;connectable=0;top=0;left=0;bottom=0;right=0;align=left;spacingLeft=6;" vertex="1" parent="83">
                    <mxGeometry x="32.75" width="154" height="20" as="geometry">
                        <mxRectangle width="154" height="20" as="alternateBounds"/>
                    </mxGeometry>
                </mxCell>
                <mxCell id="90" value="" style="edgeStyle=entityRelationEdgeStyle;endArrow=ERzeroToMany;startArrow=ERoneToMany;endFill=1;startFill=0;exitX=0;exitY=0.5;exitDx=0;exitDy=0;" edge="1" parent="1" source="YFGoI8jdiH5YfzTE92s3-40" target="65">
                    <mxGeometry width="100" height="100" relative="1" as="geometry">
                        <mxPoint x="597" y="-29" as="sourcePoint"/>
                        <mxPoint x="573" y="-196" as="targetPoint"/>
                    </mxGeometry>
                </mxCell>
                <mxCell id="91" value="best_shows_yearly" style="shape=table;startSize=22;container=1;collapsible=1;childLayout=tableLayout;fixedRows=1;rowLines=0;fontStyle=1;align=center;resizeLast=1;fillColor=#1ba1e2;strokeColor=#006EAF;fontColor=#ffffff;" vertex="1" parent="1">
                    <mxGeometry x="271" y="92" width="169.75" height="232" as="geometry"/>
                </mxCell>
                <mxCell id="92" value="" style="shape=partialRectangle;collapsible=0;dropTarget=0;pointerEvents=0;points=[[0,0.5],[1,0.5]];portConstraint=eastwest;top=0;left=0;right=0;bottom=1;" vertex="1" parent="91">
                    <mxGeometry y="22" width="169.75" height="32" as="geometry"/>
                </mxCell>
                <mxCell id="93" value="PK" style="shape=partialRectangle;overflow=hidden;connectable=0;top=0;left=0;bottom=0;right=0;fontStyle=0;" vertex="1" parent="92">
                    <mxGeometry width="32.75" height="32" as="geometry">
                        <mxRectangle width="32.75" height="32" as="alternateBounds"/>
                    </mxGeometry>
                </mxCell>
                <mxCell id="94" value="title" style="shape=partialRectangle;overflow=hidden;connectable=0;top=0;left=0;bottom=0;right=0;align=left;spacingLeft=6;fontStyle=4;" vertex="1" parent="92">
                    <mxGeometry x="32.75" width="137" height="32" as="geometry">
                        <mxRectangle width="137" height="32" as="alternateBounds"/>
                    </mxGeometry>
                </mxCell>
                <mxCell id="95" style="shape=partialRectangle;collapsible=0;dropTarget=0;pointerEvents=0;points=[[0,0.5],[1,0.5]];portConstraint=eastwest;top=0;left=0;right=0;bottom=0;" vertex="1" parent="91">
                    <mxGeometry y="54" width="169.75" height="30" as="geometry"/>
                </mxCell>
                <mxCell id="96" style="shape=partialRectangle;overflow=hidden;connectable=0;top=0;left=0;bottom=0;right=0;" vertex="1" parent="95">
                    <mxGeometry width="32.75" height="30" as="geometry">
                        <mxRectangle width="32.75" height="30" as="alternateBounds"/>
                    </mxGeometry>
                </mxCell>
                <mxCell id="97" value="release_year - int" style="shape=partialRectangle;overflow=hidden;connectable=0;top=0;left=0;bottom=0;right=0;align=left;spacingLeft=6;" vertex="1" parent="95">
                    <mxGeometry x="32.75" width="137" height="30" as="geometry">
                        <mxRectangle width="137" height="30" as="alternateBounds"/>
                    </mxGeometry>
                </mxCell>
                <mxCell id="98" style="shape=partialRectangle;collapsible=0;dropTarget=0;pointerEvents=0;points=[[0,0.5],[1,0.5]];portConstraint=eastwest;top=0;left=0;right=0;bottom=0;" vertex="1" parent="91">
                    <mxGeometry y="84" width="169.75" height="30" as="geometry"/>
                </mxCell>
                <mxCell id="99" style="shape=partialRectangle;overflow=hidden;connectable=0;top=0;left=0;bottom=0;right=0;" vertex="1" parent="98">
                    <mxGeometry width="32.75" height="30" as="geometry">
                        <mxRectangle width="32.75" height="30" as="alternateBounds"/>
                    </mxGeometry>
                </mxCell>
                <mxCell id="100" value="score - float" style="shape=partialRectangle;overflow=hidden;connectable=0;top=0;left=0;bottom=0;right=0;align=left;spacingLeft=6;" vertex="1" parent="98">
                    <mxGeometry x="32.75" width="137" height="30" as="geometry">
                        <mxRectangle width="137" height="30" as="alternateBounds"/>
                    </mxGeometry>
                </mxCell>
                <mxCell id="101" style="shape=partialRectangle;collapsible=0;dropTarget=0;pointerEvents=0;points=[[0,0.5],[1,0.5]];portConstraint=eastwest;top=0;left=0;right=0;bottom=0;" vertex="1" parent="91">
                    <mxGeometry y="114" width="169.75" height="30" as="geometry"/>
                </mxCell>
                <mxCell id="102" style="shape=partialRectangle;overflow=hidden;connectable=0;top=0;left=0;bottom=0;right=0;" vertex="1" parent="101">
                    <mxGeometry width="32.75" height="30" as="geometry">
                        <mxRectangle width="32.75" height="30" as="alternateBounds"/>
                    </mxGeometry>
                </mxCell>
                <mxCell id="103" value="main_genre - str" style="shape=partialRectangle;overflow=hidden;connectable=0;top=0;left=0;bottom=0;right=0;align=left;spacingLeft=6;" vertex="1" parent="101">
                    <mxGeometry x="32.75" width="137" height="30" as="geometry">
                        <mxRectangle width="137" height="30" as="alternateBounds"/>
                    </mxGeometry>
                </mxCell>
                <mxCell id="104" style="shape=partialRectangle;collapsible=0;dropTarget=0;pointerEvents=0;points=[[0,0.5],[1,0.5]];portConstraint=eastwest;top=0;left=0;right=0;bottom=0;" vertex="1" parent="91">
                    <mxGeometry y="144" width="169.75" height="30" as="geometry"/>
                </mxCell>
                <mxCell id="105" style="shape=partialRectangle;overflow=hidden;connectable=0;top=0;left=0;bottom=0;right=0;" vertex="1" parent="104">
                    <mxGeometry width="32.75" height="30" as="geometry">
                        <mxRectangle width="32.75" height="30" as="alternateBounds"/>
                    </mxGeometry>
                </mxCell>
                <mxCell id="106" value="main_prod_country - str" style="shape=partialRectangle;overflow=hidden;connectable=0;top=0;left=0;bottom=0;right=0;align=left;spacingLeft=6;" vertex="1" parent="104">
                    <mxGeometry x="32.75" width="137" height="30" as="geometry">
                        <mxRectangle width="137" height="30" as="alternateBounds"/>
                    </mxGeometry>
                </mxCell>
                <mxCell id="107" style="shape=partialRectangle;collapsible=0;dropTarget=0;pointerEvents=0;points=[[0,0.5],[1,0.5]];portConstraint=eastwest;top=0;left=0;right=0;bottom=0;" vertex="1" parent="91">
                    <mxGeometry y="174" width="169.75" height="30" as="geometry"/>
                </mxCell>
                <mxCell id="108" style="shape=partialRectangle;overflow=hidden;connectable=0;top=0;left=0;bottom=0;right=0;" vertex="1" parent="107">
                    <mxGeometry width="32.75" height="30" as="geometry">
                        <mxRectangle width="32.75" height="30" as="alternateBounds"/>
                    </mxGeometry>
                </mxCell>
                <mxCell id="109" value="num_seasons - int" style="shape=partialRectangle;overflow=hidden;connectable=0;top=0;left=0;bottom=0;right=0;align=left;spacingLeft=6;" vertex="1" parent="107">
                    <mxGeometry x="32.75" width="137" height="30" as="geometry">
                        <mxRectangle width="137" height="30" as="alternateBounds"/>
                    </mxGeometry>
                </mxCell>
                <mxCell id="110" style="shape=partialRectangle;collapsible=0;dropTarget=0;pointerEvents=0;points=[[0,0.5],[1,0.5]];portConstraint=eastwest;top=0;left=0;right=0;bottom=0;" vertex="1" parent="91">
                    <mxGeometry y="204" width="169.75" height="20" as="geometry"/>
                </mxCell>
                <mxCell id="111" style="shape=partialRectangle;overflow=hidden;connectable=0;top=0;left=0;bottom=0;right=0;" vertex="1" parent="110">
                    <mxGeometry width="32.75" height="20" as="geometry">
                        <mxRectangle width="32.75" height="20" as="alternateBounds"/>
                    </mxGeometry>
                </mxCell>
                <mxCell id="112" style="shape=partialRectangle;overflow=hidden;connectable=0;top=0;left=0;bottom=0;right=0;align=left;spacingLeft=6;" vertex="1" parent="110">
                    <mxGeometry x="32.75" width="137" height="20" as="geometry">
                        <mxRectangle width="137" height="20" as="alternateBounds"/>
                    </mxGeometry>
                </mxCell>
                <mxCell id="113" value="best_shows" style="shape=table;startSize=22;container=1;collapsible=1;childLayout=tableLayout;fixedRows=1;rowLines=0;fontStyle=1;align=center;resizeLast=1;fillColor=#1ba1e2;strokeColor=#006EAF;fontColor=#ffffff;" vertex="1" parent="1">
                    <mxGeometry x="457" y="216" width="186.75" height="248.75" as="geometry"/>
                </mxCell>
                <mxCell id="114" value="" style="shape=partialRectangle;collapsible=0;dropTarget=0;pointerEvents=0;points=[[0,0.5],[1,0.5]];portConstraint=eastwest;top=0;left=0;right=0;bottom=1;" vertex="1" parent="113">
                    <mxGeometry y="22" width="186.75" height="32" as="geometry"/>
                </mxCell>
                <mxCell id="115" value="PK" style="shape=partialRectangle;overflow=hidden;connectable=0;top=0;left=0;bottom=0;right=0;fontStyle=0;" vertex="1" parent="114">
                    <mxGeometry width="32.75" height="32" as="geometry">
                        <mxRectangle width="32.75" height="32" as="alternateBounds"/>
                    </mxGeometry>
                </mxCell>
                <mxCell id="116" value="title" style="shape=partialRectangle;overflow=hidden;connectable=0;top=0;left=0;bottom=0;right=0;align=left;spacingLeft=6;fontStyle=4;" vertex="1" parent="114">
                    <mxGeometry x="32.75" width="154" height="32" as="geometry">
                        <mxRectangle width="154" height="32" as="alternateBounds"/>
                    </mxGeometry>
                </mxCell>
                <mxCell id="117" style="shape=partialRectangle;collapsible=0;dropTarget=0;pointerEvents=0;points=[[0,0.5],[1,0.5]];portConstraint=eastwest;top=0;left=0;right=0;bottom=0;" vertex="1" parent="113">
                    <mxGeometry y="54" width="186.75" height="30" as="geometry"/>
                </mxCell>
                <mxCell id="118" style="shape=partialRectangle;overflow=hidden;connectable=0;top=0;left=0;bottom=0;right=0;" vertex="1" parent="117">
                    <mxGeometry width="32.75" height="30" as="geometry">
                        <mxRectangle width="32.75" height="30" as="alternateBounds"/>
                    </mxGeometry>
                </mxCell>
                <mxCell id="119" value="release_year - int" style="shape=partialRectangle;overflow=hidden;connectable=0;top=0;left=0;bottom=0;right=0;align=left;spacingLeft=6;" vertex="1" parent="117">
                    <mxGeometry x="32.75" width="154" height="30" as="geometry">
                        <mxRectangle width="154" height="30" as="alternateBounds"/>
                    </mxGeometry>
                </mxCell>
                <mxCell id="120" style="shape=partialRectangle;collapsible=0;dropTarget=0;pointerEvents=0;points=[[0,0.5],[1,0.5]];portConstraint=eastwest;top=0;left=0;right=0;bottom=0;" vertex="1" parent="113">
                    <mxGeometry y="84" width="186.75" height="30" as="geometry"/>
                </mxCell>
                <mxCell id="121" style="shape=partialRectangle;overflow=hidden;connectable=0;top=0;left=0;bottom=0;right=0;" vertex="1" parent="120">
                    <mxGeometry width="32.75" height="30" as="geometry">
                        <mxRectangle width="32.75" height="30" as="alternateBounds"/>
                    </mxGeometry>
                </mxCell>
                <mxCell id="122" value="score - float" style="shape=partialRectangle;overflow=hidden;connectable=0;top=0;left=0;bottom=0;right=0;align=left;spacingLeft=6;" vertex="1" parent="120">
                    <mxGeometry x="32.75" width="154" height="30" as="geometry">
                        <mxRectangle width="154" height="30" as="alternateBounds"/>
                    </mxGeometry>
                </mxCell>
                <mxCell id="123" style="shape=partialRectangle;collapsible=0;dropTarget=0;pointerEvents=0;points=[[0,0.5],[1,0.5]];portConstraint=eastwest;top=0;left=0;right=0;bottom=0;" vertex="1" parent="113">
                    <mxGeometry y="114" width="186.75" height="30" as="geometry"/>
                </mxCell>
                <mxCell id="124" style="shape=partialRectangle;overflow=hidden;connectable=0;top=0;left=0;bottom=0;right=0;" vertex="1" parent="123">
                    <mxGeometry width="32.75" height="30" as="geometry">
                        <mxRectangle width="32.75" height="30" as="alternateBounds"/>
                    </mxGeometry>
                </mxCell>
                <mxCell id="125" value="main_genre - str" style="shape=partialRectangle;overflow=hidden;connectable=0;top=0;left=0;bottom=0;right=0;align=left;spacingLeft=6;" vertex="1" parent="123">
                    <mxGeometry x="32.75" width="154" height="30" as="geometry">
                        <mxRectangle width="154" height="30" as="alternateBounds"/>
                    </mxGeometry>
                </mxCell>
                <mxCell id="126" style="shape=partialRectangle;collapsible=0;dropTarget=0;pointerEvents=0;points=[[0,0.5],[1,0.5]];portConstraint=eastwest;top=0;left=0;right=0;bottom=0;" vertex="1" parent="113">
                    <mxGeometry y="144" width="186.75" height="27" as="geometry"/>
                </mxCell>
                <mxCell id="127" style="shape=partialRectangle;overflow=hidden;connectable=0;top=0;left=0;bottom=0;right=0;" vertex="1" parent="126">
                    <mxGeometry width="32.75" height="27" as="geometry">
                        <mxRectangle width="32.75" height="27" as="alternateBounds"/>
                    </mxGeometry>
                </mxCell>
                <mxCell id="128" value="num_votes - int" style="shape=partialRectangle;overflow=hidden;connectable=0;top=0;left=0;bottom=0;right=0;align=left;spacingLeft=6;" vertex="1" parent="126">
                    <mxGeometry x="32.75" width="154" height="27" as="geometry">
                        <mxRectangle width="154" height="27" as="alternateBounds"/>
                    </mxGeometry>
                </mxCell>
                <mxCell id="129" style="shape=partialRectangle;collapsible=0;dropTarget=0;pointerEvents=0;points=[[0,0.5],[1,0.5]];portConstraint=eastwest;top=0;left=0;right=0;bottom=0;" vertex="1" parent="113">
                    <mxGeometry y="171" width="186.75" height="30" as="geometry"/>
                </mxCell>
                <mxCell id="130" style="shape=partialRectangle;overflow=hidden;connectable=0;top=0;left=0;bottom=0;right=0;" vertex="1" parent="129">
                    <mxGeometry width="32.75" height="30" as="geometry">
                        <mxRectangle width="32.75" height="30" as="alternateBounds"/>
                    </mxGeometry>
                </mxCell>
                <mxCell id="131" value="runtime - int" style="shape=partialRectangle;overflow=hidden;connectable=0;top=0;left=0;bottom=0;right=0;align=left;spacingLeft=6;" vertex="1" parent="129">
                    <mxGeometry x="32.75" width="154" height="30" as="geometry">
                        <mxRectangle width="154" height="30" as="alternateBounds"/>
                    </mxGeometry>
                </mxCell>
                <mxCell id="132" style="shape=partialRectangle;collapsible=0;dropTarget=0;pointerEvents=0;points=[[0,0.5],[1,0.5]];portConstraint=eastwest;top=0;left=0;right=0;bottom=0;" vertex="1" parent="113">
                    <mxGeometry y="201" width="186.75" height="20" as="geometry"/>
                </mxCell>
                <mxCell id="133" style="shape=partialRectangle;overflow=hidden;connectable=0;top=0;left=0;bottom=0;right=0;" vertex="1" parent="132">
                    <mxGeometry width="32.75" height="20" as="geometry">
                        <mxRectangle width="32.75" height="20" as="alternateBounds"/>
                    </mxGeometry>
                </mxCell>
                <mxCell id="134" value="main_prod_country - str" style="shape=partialRectangle;overflow=hidden;connectable=0;top=0;left=0;bottom=0;right=0;align=left;spacingLeft=6;" vertex="1" parent="132">
                    <mxGeometry x="32.75" width="154" height="20" as="geometry">
                        <mxRectangle width="154" height="20" as="alternateBounds"/>
                    </mxGeometry>
                </mxCell>
                <mxCell id="135" style="shape=partialRectangle;collapsible=0;dropTarget=0;pointerEvents=0;points=[[0,0.5],[1,0.5]];portConstraint=eastwest;top=0;left=0;right=0;bottom=0;" vertex="1" parent="113">
                    <mxGeometry y="221" width="186.75" height="20" as="geometry"/>
                </mxCell>
                <mxCell id="136" style="shape=partialRectangle;overflow=hidden;connectable=0;top=0;left=0;bottom=0;right=0;" vertex="1" parent="135">
                    <mxGeometry width="32.75" height="20" as="geometry">
                        <mxRectangle width="32.75" height="20" as="alternateBounds"/>
                    </mxGeometry>
                </mxCell>
                <mxCell id="137" value="num_seasons - int" style="shape=partialRectangle;overflow=hidden;connectable=0;top=0;left=0;bottom=0;right=0;align=left;spacingLeft=6;" vertex="1" parent="135">
                    <mxGeometry x="32.75" width="154" height="20" as="geometry">
                        <mxRectangle width="154" height="20" as="alternateBounds"/>
                    </mxGeometry>
                </mxCell>
                <mxCell id="138" value="" style="edgeStyle=entityRelationEdgeStyle;endArrow=ERzeroToMany;startArrow=ERoneToMany;endFill=1;startFill=0;exitX=0;exitY=0.5;exitDx=0;exitDy=0;" edge="1" parent="1" source="YFGoI8jdiH5YfzTE92s3-40" target="92">
                    <mxGeometry width="100" height="100" relative="1" as="geometry">
                        <mxPoint x="596" y="-126" as="sourcePoint"/>
                        <mxPoint x="503.75" y="-290" as="targetPoint"/>
                    </mxGeometry>
                </mxCell>
                <mxCell id="139" value="" style="edgeStyle=entityRelationEdgeStyle;endArrow=ERzeroToMany;startArrow=ERoneToMany;endFill=1;startFill=0;exitX=0.993;exitY=0.719;exitDx=0;exitDy=0;exitPerimeter=0;" edge="1" parent="1" source="114">
                    <mxGeometry width="100" height="100" relative="1" as="geometry">
                        <mxPoint x="543" y="249" as="sourcePoint"/>
                        <mxPoint x="588" y="-138" as="targetPoint"/>
                    </mxGeometry>
                </mxCell>
            </root>
        </mxGraphModel>
    </diagram>
</mxfile>